<?xml version="1.0" encoding="utf-8"?>
<!-- Generator: Adobe Illustrator 16.0.0, SVG Export Plug-In . SVG Version: 6.00 Build 0)  -->
<!DOCTYPE svg PUBLIC "-//W3C//DTD SVG 1.1//EN" "http://www.w3.org/Graphics/SVG/1.1/DTD/svg11.dtd">
<svg version="1.1" id="Layer_1" focusable="false" xmlns="http://www.w3.org/2000/svg" xmlns:xlink="http://www.w3.org/1999/xlink"
	 x="0px" y="0px" width="520px" height="520px" viewBox="884.5 20 520 520" enable-background="new 884.5 20 520 520"
	 xml:space="preserve">
	<path fill="#ffffff" d="M1328.6,420.5l-93.1-93.1c16.3-24.5,25.8-53.9,25.8-85.6c0-85.6-69.4-155-155-155s-155,69.4-155,155
		c0,85.6,69.4,155,155,155c31.6,0,61.1-9.5,85.6-25.8l93.1,93.1c12,12,31.6,12,43.6,0C1340.7,452.1,1340.7,432.6,1328.6,420.5z
		 M1106.3,341.7c-55.1,0-99.9-44.7-99.9-99.9c0-55.2,44.7-99.9,99.9-99.9c55.1,0,99.9,44.7,99.9,99.9
		C1206.2,297,1161.5,341.7,1106.3,341.7z"/>
</svg>
