<?xml version="1.0" encoding="utf-8"?>
<!-- Generator: Adobe Illustrator 16.0.0, SVG Export Plug-In . SVG Version: 6.00 Build 0)  -->
<!DOCTYPE svg PUBLIC "-//W3C//DTD SVG 1.1//EN" "http://www.w3.org/Graphics/SVG/1.1/DTD/svg11.dtd">
<svg version="1.1" id="Layer_1" focusable="false" xmlns="http://www.w3.org/2000/svg" xmlns:xlink="http://www.w3.org/1999/xlink"
	 x="0px" y="0px" width="520px" height="520px" viewBox="182.5 20 520 520" enable-background="new 182.5 20 520 520"
	 xml:space="preserve">
	<path fill="#ffffff" d="M442.7,87.5c-106.2,0-192,86.3-192,192.5h-64.2l83.3,83.3l0.9,3L357,280h-63.7c0-82.6,67-149.8,149.8-149.8
		c82.6,0,149.3,67.2,149.3,149.8c0,82.6-66.7,149.8-149.3,149.8c-41.5,0-78.9-17-105.9-44.3l-30.3,30.3c35,35,82.8,56.7,136,56.7
		c106.9,0,193.2-86.3,193.2-192.5c0-106.4-86.3-192.5-192.7-192.5H442.7z M421.7,194.4v107.3l91.5,53.7l15.4-25.7l-74.7-44.3v-91
		H421.7z"/>
</svg>
